<svg xmlns="http://www.w3.org/2000/svg" x="0px" y="0px"
width="50" height="50"
viewBox="0 0 172 172"
style=" fill:#000000;"><g fill="none" fill-rule="nonzero" stroke="none" stroke-width="1" stroke-linecap="butt" stroke-linejoin="miter" stroke-miterlimit="10" stroke-dasharray="" stroke-dashoffset="0" font-family="none" font-weight="none" font-size="none" text-anchor="none" style="mix-blend-mode: normal"><path d="M0,172v-172h172v172z" fill="none"></path><g fill="#666666"><path d="M86,10.45438c-3.55504,0 -7.10998,1.71993 -9.07031,5.16672l-72.09219,126.78953c-3.91834,6.89328 1.15173,15.82937 9.07703,15.82937h144.17094c7.9253,0 12.99381,-8.94057 9.07703,-15.8361l-72.09219,-126.78281c-1.96033,-3.44678 -5.51527,-5.16672 -9.07031,-5.16672zM86,17.06563c1.17324,0 2.34711,0.65458 3.09063,1.96187l72.09219,126.7761h-0.00672c1.48418,2.61263 -0.20745,5.5564 -3.09063,5.5564h-144.17094c-2.88318,0 -4.57981,-2.94169 -3.09734,-5.54969l72.09219,-126.78281c0.74351,-1.3073 1.91739,-1.96187 3.09063,-1.96187zM82.55328,58.48c-1.89888,0 -3.43328,1.54112 -3.43328,3.44v48.16c0,1.89888 1.52424,3.44 3.42656,3.44h6.89344c1.89888,0 3.43328,-1.54112 3.43328,-3.44l0.00672,-48.16c0,-1.89888 -1.53096,-3.44 -3.43328,-3.44zM82.55328,123.84c-1.89888,0 -3.43328,1.54112 -3.43328,3.44v6.88c0,1.89888 1.53096,3.44 3.43328,3.44h6.89344c1.89888,0 3.43328,-1.54112 3.43328,-3.44v-6.88c0,-1.89888 -1.53096,-3.44 -3.43328,-3.44z"></path></g><path d="M86,172c-47.49649,0 -86,-38.50351 -86,-86v0c0,-47.49649 38.50351,-86 86,-86v0c47.49649,0 86,38.50351 86,86v0c0,47.49649 -38.50351,86 -86,86z" fill="none"></path><path d="M86,165.12c-43.69677,0 -79.12,-35.42323 -79.12,-79.12v0c0,-43.69677 35.42323,-79.12 79.12,-79.12v0c43.69677,0 79.12,35.42323 79.12,79.12v0c0,43.69677 -35.42323,79.12 -79.12,79.12z" fill="none"></path></g></svg>